<svg width="174" height="51" viewBox="0 0 174 51" fill="none" xmlns="http://www.w3.org/2000/svg">
<path d="M22.638 25.67H29.988V37.85C28.308 39.054 26.376 39.978 24.192 40.622C22.008 41.266 19.824 41.588 17.64 41.588C14.56 41.588 11.788 40.944 9.324 39.656C6.86 38.34 4.928 36.52 3.528 34.196C2.128 31.872 1.428 29.24 1.428 26.3C1.428 23.36 2.128 20.728 3.528 18.404C4.928 16.08 6.874 14.274 9.366 12.986C11.858 11.67 14.672 11.012 17.808 11.012C20.552 11.012 23.016 11.474 25.2 12.398C27.384 13.322 29.204 14.652 30.66 16.388L25.368 21.176C23.38 18.992 21 17.9 18.228 17.9C15.708 17.9 13.678 18.67 12.138 20.21C10.598 21.722 9.828 23.752 9.828 26.3C9.828 27.924 10.178 29.38 10.878 30.668C11.578 31.928 12.558 32.922 13.818 33.65C15.078 34.35 16.52 34.7 18.144 34.7C19.74 34.7 21.238 34.378 22.638 33.734V25.67ZM54.9583 35.288H42.5263L40.2163 41H31.7323L44.7103 11.6H52.9003L65.9203 41H57.2683L54.9583 35.288ZM52.5223 29.156L48.7423 19.748L44.9623 29.156H52.5223ZM73.0593 18.194H64.0293V11.6H90.3633V18.194H81.3753V41H73.0593V18.194ZM93.4615 11.6H101.777V41H93.4615V11.6ZM113.952 18.194H104.922V11.6H131.256V18.194H122.268V41H113.952V18.194Z" fill="#110133"/>
<path fill-rule="evenodd" clip-rule="evenodd" d="M173.784 12.0001C173.779 12.0393 173.77 12.0787 173.77 12.118C173.769 13.974 173.769 15.8301 173.769 17.6861C173.769 17.7233 173.769 17.7606 173.769 17.8102C173.729 17.8102 173.692 17.8102 173.656 17.8102C170.789 17.8102 167.922 17.8102 165.055 17.8102C163.61 17.8102 162.391 18.8497 162.174 20.2762C162.144 20.4685 162.149 20.6669 162.149 20.8623C162.147 23.6781 162.148 26.4938 162.149 29.3095C162.149 29.335 162.149 29.3606 162.149 29.3929C162.032 29.3929 161.921 29.3993 161.81 29.3919C160.425 29.2988 159.215 28.7918 158.199 27.848C157.188 26.9091 156.591 25.7484 156.398 24.3847C156.361 24.1261 156.346 23.8625 156.345 23.6012C156.341 21.6788 156.338 19.7566 156.344 17.8342C156.349 16.2861 156.878 14.9368 157.946 13.8105C158.865 12.8422 159.993 12.2629 161.317 12.0677C161.494 12.0416 161.673 12.0321 161.851 12.0141C161.87 12.0122 161.888 12.0048 161.906 12C165.865 12.0001 169.825 12.0001 173.784 12.0001Z" fill="#110133"/>
<path d="M156.272 12.0608C156.298 12.0451 156.318 12.0207 156.34 12.0005H141.549C140 12 140.5 12.0005 138.5 12.0005L136.122 12.0005V17.8079L153.37 17.8078H153.495C153.494 17.7733 153.494 17.7479 153.491 17.723C153.414 17.0886 153.438 16.4575 153.577 15.8342C153.941 14.1986 154.847 12.9447 156.272 12.0608Z" fill="#110133"/>
<path d="M153.311 35.1917L136.121 35.1916V40.9903H141.704C145.585 41.0078 149.465 40.9962 153.346 40.9962H153.437V35.1917H153.311Z" fill="#110133"/>
<path fill-rule="evenodd" clip-rule="evenodd" d="M136 23.6032C140.839 23.6032 145.679 23.6032 150.523 23.6032C150.523 25.5377 150.523 27.4637 150.523 29.399C150.487 29.399 150.456 29.399 150.425 29.399C145.645 29.399 140.866 29.399 136.086 29.3989C136.058 29.3989 136.029 29.397 136 29.3961C136 27.4652 136 25.5342 136 23.6032Z" fill="#110133"/>
<path fill-rule="evenodd" clip-rule="evenodd" d="M167.958 23.5897C168.237 23.6135 168.506 23.6235 168.77 23.6611C169.952 23.8291 170.991 24.3111 171.872 25.1151C172.886 26.0408 173.499 27.1867 173.708 28.5421C173.748 28.8001 173.766 29.0638 173.767 29.325C173.771 31.3077 173.777 33.2904 173.767 35.2731C173.76 36.6655 173.288 37.8966 172.386 38.9562C171.519 39.9744 170.422 40.6207 169.108 40.8822C168.761 40.9511 168.403 40.9935 168.051 40.9942C164.184 41.002 160.317 40.9991 156.451 40.9991C156.419 40.9991 156.388 40.9991 156.349 40.9991C156.349 39.0654 156.349 37.1362 156.349 35.1918C156.381 35.1918 156.414 35.1918 156.447 35.1918C159.346 35.1916 162.244 35.1949 165.143 35.1886C165.834 35.1871 166.442 34.934 166.958 34.4806C167.624 33.896 167.956 33.152 167.957 32.2679C167.959 29.4206 167.958 26.5733 167.958 23.7261C167.958 23.689 167.958 23.6519 167.958 23.5897Z" fill="#110133"/>
</svg>
