<svg width="27" height="20" viewBox="0 0 27 20" fill="none" xmlns="http://www.w3.org/2000/svg">
<g clip-path="url(#clip0)">
<path fill-rule="evenodd" clip-rule="evenodd" d="M26.0579 5.0042e-05C26.0546 0.0271311 26.0484 0.0542616 26.0484 0.0813923C26.0479 1.36141 26.0479 2.64143 26.0479 3.92145C26.0479 3.94713 26.0479 3.97282 26.0479 4.00706C26.0198 4.00706 25.9948 4.00706 25.9697 4.00706C23.9925 4.00706 22.0154 4.00706 20.0383 4.00706C19.0414 4.00706 18.2007 4.72396 18.0509 5.70776C18.0308 5.84033 18.0336 5.97714 18.0335 6.11192C18.0328 8.05384 18.0334 9.99571 18.0337 11.9376C18.0337 11.9552 18.0337 11.9728 18.0337 11.9951C17.9534 11.9951 17.8763 11.9996 17.8 11.9944C16.8451 11.9302 16.0105 11.5806 15.3097 10.9297C14.6123 10.2821 14.2006 9.48163 14.0677 8.54118C14.0424 8.36282 14.0315 8.18102 14.0312 8.00082C14.0282 6.67506 14.0263 5.34935 14.0306 4.02361C14.034 2.95591 14.3984 2.02537 15.1353 1.24861C15.7689 0.580829 16.5471 0.181319 17.4599 0.0466588C17.5818 0.028671 17.7055 0.0221124 17.8282 0.00968992C17.8411 0.008398 17.8536 0.00332924 17.8664 0C20.5968 4.96902e-05 23.3273 5.0042e-05 26.0579 5.0042e-05Z" fill="#232323"/>
<path fill-rule="evenodd" clip-rule="evenodd" d="M14.0276 0.000366211C14.0121 0.0143291 13.9983 0.0311239 13.9809 0.0419563C12.9981 0.651555 12.3733 1.51631 12.1217 2.64428C12.0258 3.07415 12.0093 3.50943 12.0627 3.94696C12.0648 3.9641 12.0645 3.98159 12.0655 4.00539C12.0339 4.00539 12.0065 4.00539 11.9791 4.00539C8.01399 4.00539 4.04892 4.00539 0.0838047 4.00544C0.0559513 4.00544 0.0280977 4.00668 0.000244141 4.00733C0.000244141 3.90795 0.000244141 3.80857 0.000244141 3.70919C0.0039812 3.69458 0.00936247 3.68017 0.0111562 3.66536C0.0249086 3.55306 0.0327815 3.43977 0.0520649 3.32846C0.211463 2.40939 0.63699 1.63433 1.33482 1.01365C1.98651 0.433963 2.75117 0.104467 3.6217 0.0221299C3.69021 0.0156702 3.75858 0.00767067 3.82704 0.000366211C7.22713 0.000366211 10.6274 0.000366211 14.0276 0.000366211Z" fill="#232323"/>
<path fill-rule="evenodd" clip-rule="evenodd" d="M0 15.9923C0.0278536 15.993 0.0557069 15.9942 0.0835607 15.9942C4.03528 15.9943 7.98692 15.9943 11.9386 15.9943C11.9663 15.9943 11.9939 15.9943 12.0259 15.9943C12.0259 17.3287 12.0259 18.6589 12.0259 19.9974C12.0051 19.9974 11.984 19.9974 11.9628 19.9974C9.2865 19.9974 6.61012 20.0054 3.93388 19.9933C2.92188 19.9887 2.0355 19.6208 1.29053 18.9364C0.593394 18.2957 0.179777 17.5007 0.0387157 16.5656C0.0231198 16.4624 0.0127558 16.3584 0 16.2547C0 16.1672 0 16.0797 0 15.9923Z" fill="#232323"/>
<path fill-rule="evenodd" clip-rule="evenodd" d="M0 8.0022C3.33749 8.0022 6.67498 8.0022 10.0158 8.0022C10.0158 9.33632 10.0158 10.6646 10.0158 11.9993C9.99093 11.9993 9.96955 11.9993 9.94814 11.9993C6.65201 11.9993 3.35583 11.9993 0.0596432 11.9992C0.0397622 11.9992 0.0198811 11.9979 0 11.9973C0 10.6656 0 9.33387 0 8.0022Z" fill="#232323"/>
<path fill-rule="evenodd" clip-rule="evenodd" d="M22.0396 7.99292C22.2323 8.00933 22.4175 8.01623 22.6001 8.04218C23.4152 8.15806 24.1315 8.49047 24.7391 9.04496C25.4388 9.68333 25.8611 10.4737 26.0053 11.4084C26.0328 11.5863 26.0455 11.7682 26.0459 11.9483C26.0491 13.3157 26.0529 14.6831 26.0459 16.0505C26.0411 17.0107 25.7159 17.8598 25.0938 18.5905C24.4959 19.2928 23.739 19.7385 22.8327 19.9188C22.5939 19.9663 22.347 19.9956 22.1038 19.9961C19.4372 20.0015 16.7706 19.9995 14.104 19.9995C14.0822 19.9995 14.0603 19.9995 14.0339 19.9995C14.0339 18.6658 14.0339 17.3353 14.0339 15.9944C14.0556 15.9944 14.0785 15.9944 14.1013 15.9944C16.1003 15.9942 18.0993 15.9965 20.0983 15.9922C20.5748 15.9911 20.9943 15.8166 21.3504 15.5039C21.8095 15.1007 22.0384 14.5876 22.039 13.9779C22.0408 12.0143 22.0397 10.0506 22.0397 8.087C22.0396 8.06145 22.0396 8.03586 22.0396 7.99292Z" fill="#232323"/>
</g>
<defs>
<clipPath id="clip0">
<rect width="26.2069" height="20" fill="white"/>
</clipPath>
</defs>
</svg>
