<svg width="1366" height="270" viewBox="0 0 1366 270" fill="none" xmlns="http://www.w3.org/2000/svg">
<path d="M-43 0L-18.7667 33.6841C5.46667 67.3683 53.9333 134.737 102.4 146C150.867 156.842 199.333 112.631 247.8 101.052C296.267 89.4735 344.733 112.631 393.2 95.4735C441.667 78.9472 490.133 22.1052 538.6 33.6841C587.067 45.2631 635.533 123.158 684 140.316C732.467 156.842 780.933 112.631 829.4 89.7893C877.867 67.3683 926.333 67.3683 974.8 56.1052C1023.27 45.2631 1071.73 22.1052 1120.2 22.421C1168.67 22.1052 1217.13 45.2631 1265.6 44.9473C1314.07 45.2631 1362.53 22.1052 1386.77 11.2631L1411 0V269.473H1386.77C1362.53 269.473 1314.07 269.473 1265.6 269.473C1217.13 269.473 1168.67 269.473 1120.2 269.473C1071.73 269.473 1023.27 269.473 974.8 269.473C926.333 269.473 877.867 269.473 829.4 269.473C780.933 269.473 732.467 269.473 684 269.473C635.533 269.473 587.067 269.473 538.6 269.473C490.133 269.473 441.667 269.473 393.2 269.473C344.733 269.473 296.267 269.473 247.8 269.473C199.333 269.473 150.867 269.473 102.4 269.473C53.9333 269.473 5.46667 269.473 -18.7667 269.473H-43V0Z" fill="#D3F5E6"/>
</svg>
